<svg width="0" height="0" class="hidden">
  <symbol version="1.1" xmlns="http://www.w3.org/2000/svg" viewBox="0 0 32 32" id="icon-add">
    <path d="M14.864 17.136h-7.261c-0.321 0-0.59-0.11-0.808-0.329s-0.327-0.49-0.327-0.812c0-0.322 0.109-0.591 0.327-0.806s0.488-0.323 0.808-0.323h7.261v-7.261c0-0.32 0.11-0.591 0.329-0.812s0.49-0.332 0.812-0.332c0.322 0 0.591 0.111 0.806 0.332s0.323 0.492 0.323 0.812v7.261h7.261c0.32 0 0.591 0.11 0.812 0.329s0.332 0.49 0.332 0.812c0 0.322-0.111 0.591-0.332 0.806s-0.492 0.323-0.812 0.323h-7.261v7.261c0 0.321-0.11 0.59-0.329 0.808s-0.49 0.327-0.812 0.327c-0.322 0-0.591-0.109-0.806-0.327s-0.323-0.488-0.323-0.808v-7.261z"></path>
  </symbol>
  <symbol version="1.1" xmlns="http://www.w3.org/2000/svg" viewBox="0 0 32 32" id="icon-call">
    <path stroke-linejoin="miter" stroke-linecap="butt" stroke-miterlimit="4" stroke-width="1.3333" stroke="#000" fill="#000" d="M5.492 4.46h4.667c0.245 0 0.415 0.073 0.555 0.204 0.125 0.117 0.229 0.27 0.307 0.471l0.069 0.217 0.887 4.018c0.044 0.309 0.034 0.556-0.013 0.751-0.042 0.175-0.124 0.319-0.257 0.445l-0.009 0.008-3.729 3.678 0.267 0.448c0.569 0.956 1.174 1.853 1.814 2.687 0.644 0.839 1.359 1.637 2.143 2.393 0.818 0.844 1.673 1.611 2.565 2.298 0.9 0.693 1.841 1.3 2.822 1.819l0.441 0.233 3.568-3.661c0.186-0.202 0.382-0.323 0.59-0.385 0.175-0.052 0.348-0.070 0.522-0.057l0.176 0.023 3.76 0.832c0.221 0.061 0.397 0.157 0.539 0.283l0.133 0.137c0.156 0.188 0.232 0.399 0.232 0.658v4.547c0 0.316-0.099 0.545-0.29 0.734-0.195 0.193-0.426 0.29-0.734 0.29-2.5 0-5.061-0.6-7.686-1.82-2.624-1.219-5.065-2.953-7.323-5.211-2.116-2.116-3.773-4.395-4.979-6.836l-0.236-0.491c-1.223-2.629-1.824-5.188-1.824-7.682 0-0.237 0.055-0.427 0.164-0.589l0.128-0.152c0.192-0.193 0.421-0.292 0.733-0.292zM5.422 6.1c0.041 0.951 0.191 1.948 0.444 2.991 0.255 1.051 0.655 2.21 1.194 3.475l0.385 0.905 3.648-3.628-0.077-0.355-0.758-3.556-0.113-0.527h-4.754l0.030 0.695zM26.595 21.836l-4.207-0.87-0.257 0.267-3.259 3.415 0.844 0.393c0.927 0.431 1.931 0.78 3.010 1.051 1.081 0.271 2.137 0.434 3.168 0.486l0.701 0.035v-4.777z"></path>
  </symbol>
  <symbol version="1.1" xmlns="http://www.w3.org/2000/svg" viewBox="0 0 32 32" id="icon-camera">
    <path fill="none" stroke-linejoin="round" stroke-linecap="round" stroke-miterlimit="10" stroke-width="0.3785" stroke="#000" d="M17.51 12.612h2.759v1.431h-2.759v-1.431z"></path>
    <path fill="none" stroke-linejoin="round" stroke-linecap="round" stroke-miterlimit="10" stroke-width="0.3785" stroke="#000" d="M13.537 20.205c0-2.618 2.122-4.74 4.74-4.74s4.74 2.122 4.74 4.74c0 2.618-2.122 4.74-4.74 4.74s-4.74-2.122-4.74-4.74z"></path>
    <path fill="none" stroke-linejoin="round" stroke-linecap="round" stroke-miterlimit="10" stroke-width="0.3785" stroke="#000" d="M15.127 20.206c0-1.739 1.41-3.15 3.15-3.15s3.15 1.41 3.15 3.15c0 1.739-1.41 3.15-3.15 3.15s-3.15-1.41-3.15-3.15z"></path>
    <path fill="none" stroke-linejoin="round" stroke-linecap="round" stroke-miterlimit="10" stroke-width="0.3785" stroke="#000" d="M29.217 16.391v-1.252c0-0.624-0.506-1.13-1.13-1.13h-18.63c-0.624 0-1.13 0.506-1.13 1.13v1.252"></path>
    <path fill="none" stroke-linejoin="round" stroke-linecap="round" stroke-miterlimit="10" stroke-width="0.3785" stroke="#000" d="M15.41 16.391h-7.083v8.582c0 0.624 0.506 1.13 1.13 1.13h18.63c0.624 0 1.13-0.506 1.13-1.13v-8.582h-8.028"></path>
    <path fill="none" stroke-linejoin="round" stroke-linecap="round" stroke-miterlimit="10" stroke-width="0.3785" stroke="#000" d="M27.867 15.368h-2.431c-0.165 0-0.3-0.135-0.3-0.3s0.135-0.3 0.3-0.3h2.431c0.165 0 0.3 0.135 0.3 0.3s-0.135 0.3-0.3 0.3z"></path>
    <path fill="none" stroke-linejoin="round" stroke-linecap="round" stroke-miterlimit="10" stroke-width="0.3785" stroke="#000" d="M10.22 24.971h-0.48c-0.214 0-0.39-0.176-0.39-0.39s0.176-0.391 0.39-0.391h0.48c0.215 0 0.39 0.176 0.39 0.391s-0.176 0.39-0.39 0.39z"></path>
    <path fill="none" stroke-linejoin="round" stroke-linecap="round" stroke-miterlimit="10" stroke-width="0.3785" stroke="#000" d="M22.625 12.612h-7.472c-0.139 0-0.251-0.112-0.251-0.251v-3.904c0-0.139 0.112-0.251 0.251-0.251h7.472c0.139 0 0.251 0.112 0.251 0.251v3.904c0 0.138-0.112 0.251-0.251 0.251z"></path>
    <path fill="none" stroke-linejoin="round" stroke-linecap="round" stroke-miterlimit="10" stroke-width="0.3785" stroke="#000" d="M21.074 11.651h-4.37c-0.2 0-0.361-0.162-0.361-0.361v-1.761c0-0.2 0.162-0.361 0.361-0.361h4.37c0.199 0 0.361 0.162 0.361 0.361v1.761c0 0.199-0.162 0.361-0.361 0.361z"></path>
    <path fill="none" stroke-linejoin="round" stroke-linecap="round" stroke-miterlimit="10" stroke-width="0.3785" stroke="#000" d="M21.34 13.781c0.319-0.132 0.613-0.327 0.862-0.576l4.947-4.947"></path>
    <path fill="none" stroke-linejoin="round" stroke-linecap="round" stroke-miterlimit="10" stroke-width="0.3785" stroke="#000" d="M22.598 12.958c0 0 2.498-2.030 5.23 0.104 0 0-2.811 1.847-5.23-0.104z"></path>
    <path fill="none" stroke-linejoin="round" stroke-linecap="round" stroke-miterlimit="10" stroke-width="0.3785" stroke="#000" d="M26.934 8.449c0 0 2.362-2.186 5.226-0.232 0 0-2.686 2.024-5.226 0.232z"></path>
    <path fill="none" stroke-linejoin="round" stroke-linecap="round" stroke-miterlimit="10" stroke-width="0.3785" stroke="#000" d="M24.078 11.004c0 0-2.385-2.161-0.69-5.185 0 0 2.252 2.497 0.69 5.185z"></path>
  </symbol>
  <symbol version="1.1" xmlns="http://www.w3.org/2000/svg" viewBox="0 0 32 32" id="icon-burger">
    <path d="M4.936 24.295c-0.321 0-0.59-0.11-0.808-0.329s-0.327-0.493-0.327-0.82c0-0.322 0.109-0.591 0.327-0.807s0.488-0.323 0.808-0.323h22.127c0.321 0 0.591 0.11 0.812 0.329s0.331 0.49 0.331 0.812c0 0.328-0.11 0.599-0.331 0.814s-0.492 0.323-0.812 0.323h-22.127zM4.936 17.136c-0.321 0-0.59-0.11-0.808-0.329s-0.327-0.49-0.327-0.812c0-0.322 0.109-0.591 0.327-0.806s0.488-0.323 0.808-0.323h22.127c0.321 0 0.591 0.11 0.812 0.329s0.331 0.49 0.331 0.812c0 0.322-0.11 0.591-0.331 0.806s-0.492 0.323-0.812 0.323h-22.127zM4.936 9.984c-0.321 0-0.59-0.11-0.808-0.329s-0.327-0.493-0.327-0.82c0-0.322 0.109-0.591 0.327-0.806s0.488-0.323 0.808-0.323h22.127c0.321 0 0.591 0.11 0.812 0.329s0.331 0.49 0.331 0.812c0 0.328-0.11 0.599-0.331 0.815s-0.492 0.323-0.812 0.323h-22.127z"></path>
  </symbol>
  <symbol version="1.1" xmlns="http://www.w3.org/2000/svg" viewBox="0 0 32 32" id="icon-church">
    <path fill="none" stroke-linejoin="miter" stroke-linecap="butt" stroke-miterlimit="10" stroke-width="0.3263" stroke="#000" d="M18.916 28.422h-4.806v-16.967l2.403-4.387 2.403 4.387v16.967z"></path>
    <path fill="none" stroke-linejoin="miter" stroke-linecap="butt" stroke-miterlimit="10" stroke-width="0.3263" stroke="#000" d="M16.513 7.067v-3.489"></path>
    <path fill="none" stroke-linejoin="miter" stroke-linecap="butt" stroke-miterlimit="10" stroke-width="0.3263" stroke="#000" d="M15.842 4.953h1.341"></path>
    <path fill="none" stroke-linejoin="miter" stroke-linecap="butt" stroke-miterlimit="10" stroke-width="0.3263" stroke="#000" d="M17.183 19.465h-1.341v-5.623c0-0.91 0.216-1.809 0.633-2.63l0.038-0.074 0.038 0.074c0.416 0.821 0.633 1.719 0.633 2.63v5.623z"></path>
    <path fill="none" stroke-linejoin="miter" stroke-linecap="butt" stroke-miterlimit="10" stroke-width="0.3263" stroke="#000" d="M17.183 28.422h-1.341v-1.664c0-0.91 0.216-1.809 0.633-2.63l0.038-0.075 0.038 0.075c0.416 0.82 0.633 1.719 0.633 2.63v1.664z"></path>
    <path fill="none" stroke-linejoin="miter" stroke-linecap="butt" stroke-miterlimit="10" stroke-width="0.3263" stroke="#000" d="M16.513 23.162c-0.37 0-0.671-0.284-0.671-0.634v-1.092c0-0.35 0.3-0.634 0.671-0.634s0.67 0.284 0.67 0.634v1.092c0 0.35-0.3 0.634-0.67 0.634z"></path>
    <path fill="none" stroke-linejoin="miter" stroke-linecap="butt" stroke-miterlimit="10" stroke-width="0.3263" stroke="#000" d="M21.619 23.498v-0.949c0-0.351-0.3-0.634-0.671-0.634s-0.67 0.284-0.67 0.634v0.949h1.341z"></path>
    <path fill="none" stroke-linejoin="miter" stroke-linecap="butt" stroke-miterlimit="10" stroke-width="0.3263" stroke="#000" d="M20.582 28.422h-1.666v-9.791h0.273c2.311 0 4.185 1.772 4.185 3.957v3.192c0 1.459-1.25 2.641-2.792 2.641z"></path>
    <path fill="none" stroke-linejoin="miter" stroke-linecap="butt" stroke-miterlimit="10" stroke-width="0.3263" stroke="#000" d="M11.398 23.498v-0.949c0-0.351 0.3-0.634 0.671-0.634s0.67 0.284 0.67 0.634v0.949h-1.341z"></path>
    <path fill="none" stroke-linejoin="miter" stroke-linecap="butt" stroke-miterlimit="10" stroke-width="0.3263" stroke="#000" d="M12.435 28.422h1.666v-9.791h-0.274c-2.311 0-4.185 1.772-4.185 3.957v3.192c0 1.459 1.25 2.641 2.792 2.641z"></path>
    <path fill="none" stroke-linejoin="round" stroke-linecap="round" stroke-miterlimit="10" stroke-width="0.3263" stroke="#000" d="M22.461 20.013c0.189-0.218 0.333-0.471 0.421-0.746l1.748-5.459"></path>
    <path fill="none" stroke-linejoin="round" stroke-linecap="round" stroke-miterlimit="10" stroke-width="0.3263" stroke="#000" d="M23.082 18.937c0 0 1.073-2.42 4.018-1.937 0 0-1.385 2.409-4.018 1.937z"></path>
    <path fill="none" stroke-linejoin="round" stroke-linecap="round" stroke-miterlimit="10" stroke-width="0.3263" stroke="#000" d="M24.544 14.029c0 0 0.907-2.48 3.878-2.177 0 0-1.218 2.489-3.878 2.177z"></path>
    <path fill="none" stroke-linejoin="round" stroke-linecap="round" stroke-miterlimit="10" stroke-width="0.3263" stroke="#000" d="M23.413 16.964c0 0-2.692-0.636-2.634-3.462 0 0 2.728 0.929 2.634 3.462z"></path>
    <path fill="none" stroke-linejoin="round" stroke-linecap="round" stroke-miterlimit="10" stroke-width="0.3263" stroke="#000" d="M9.963 27.094c-0.2-0.208-0.357-0.453-0.461-0.723l-2.052-5.36"></path>
    <path fill="none" stroke-linejoin="round" stroke-linecap="round" stroke-miterlimit="10" stroke-width="0.3263" stroke="#000" d="M9.284 26.053c0 0-1.205-2.36-4.095-1.726 0 0 1.513 2.334 4.095 1.726z"></path>
    <path fill="none" stroke-linejoin="round" stroke-linecap="round" stroke-miterlimit="10" stroke-width="0.3263" stroke="#000" d="M7.548 21.227c0 0-1.044-2.429-3.97-1.972 0 0 1.353 2.421 3.97 1.972z"></path>
  </symbol>
  <symbol version="1.1" xmlns="http://www.w3.org/2000/svg" viewBox="0 0 32 32" id="icon-close">
    <path stroke-linejoin="miter" stroke-linecap="butt" stroke-miterlimit="4" stroke-width="1.3333" stroke="#000" fill="#000" d="M23.466 7.9c0.219 0 0.355 0.065 0.462 0.172s0.172 0.242 0.172 0.461c0 0.219-0.065 0.355-0.172 0.462l-7.005 7.005 7.005 7.004c0.107 0.107 0.172 0.243 0.172 0.462s-0.065 0.355-0.172 0.462-0.243 0.172-0.462 0.172c-0.219-0-0.355-0.065-0.462-0.172l-7.004-7.005-7.005 7.005c-0.107 0.107-0.243 0.172-0.462 0.172s-0.354-0.065-0.461-0.172c-0.107-0.107-0.172-0.243-0.172-0.462s0.065-0.355 0.172-0.462l7.004-7.004-7.004-7.005c-0.107-0.107-0.172-0.243-0.172-0.462s0.065-0.354 0.172-0.461 0.242-0.172 0.461-0.172c0.219 0 0.355 0.065 0.462 0.172l7.005 7.004 7.004-7.004c0.107-0.107 0.243-0.172 0.462-0.172z"></path>
  </symbol>
  <symbol version="1.1" xmlns="http://www.w3.org/2000/svg" viewBox="0 0 32 32" id="icon-champagne">
    <path fill="none" stroke-linejoin="miter" stroke-linecap="butt" stroke-miterlimit="10" stroke-width="0.3795" stroke="#000" d="M11.442 13.059c0.763-0.451 1.422-0.474 2.023-0.294l1.098-7.004-5.672-0.853-0.975 6.222c0.242-0.104 0.481-0.179 0.672-0.239 1.84-0.419 1.254 3.318 2.854 2.168z"></path>
    <path fill="none" stroke-linejoin="miter" stroke-linecap="butt" stroke-miterlimit="10" stroke-width="0.3795" stroke="#000" d="M13.243 14.186l0.222-1.421c-0.601-0.181-1.259-0.157-2.023 0.294-1.599 1.15-1.014-2.587-2.854-2.168-0.191 0.060-0.43 0.136-0.672 0.239l-0.345 2.203c-0.222 1.421 0.683 2.754 2.061 3.131l-1.135 7.244c-1.156-0.137-2.075-0.056-2.115 0.203-0.045 0.285 0.984 0.676 2.298 0.873s2.414 0.127 2.459-0.158c0.041-0.259-0.811-0.606-1.955-0.816l1.135-7.243c1.43 0.045 2.702-0.961 2.925-2.381z"></path>
    <path fill="none" stroke-linejoin="miter" stroke-linecap="butt" stroke-miterlimit="10" stroke-width="0.3795" stroke="#000" d="M19.617 15.282c0.558-0.681 1.167-0.926 1.795-0.96l-1.44-6.944-5.623 1.119 1.279 6.169c0.191-0.179 0.388-0.331 0.546-0.452 1.579-1.016 2.347 2.689 3.443 1.068z"></path>
    <path fill="none" stroke-linejoin="miter" stroke-linecap="butt" stroke-miterlimit="10" stroke-width="0.3795" stroke="#000" d="M21.704 15.73l-0.292-1.408c-0.628 0.034-1.238 0.279-1.795 0.96-1.096 1.621-1.864-2.084-3.443-1.068-0.157 0.12-0.355 0.273-0.546 0.452l0.453 2.184c0.292 1.408 1.612 2.353 3.038 2.241l1.489 7.181c-1.133 0.263-1.966 0.649-1.913 0.907 0.058 0.282 1.161 0.301 2.464 0.042s2.311-0.698 2.252-0.981c-0.053-0.257-0.974-0.295-2.122-0.104l-1.489-7.181c1.358-0.442 2.197-1.816 1.905-3.225z"></path>
    <path fill="none" stroke-linejoin="round" stroke-linecap="round" stroke-miterlimit="10" stroke-width="0.3795" stroke="#000" d="M21.412 25.846c0.314-0.167 0.595-0.394 0.824-0.671l4.551-5.507"></path>
    <path fill="none" stroke-linejoin="round" stroke-linecap="round" stroke-miterlimit="10" stroke-width="0.3795" stroke="#000" d="M22.617 24.884c0 0 2.349-2.308 5.388-0.449 0 0-2.69 2.159-5.388 0.449z"></path>
    <path fill="none" stroke-linejoin="round" stroke-linecap="round" stroke-miterlimit="10" stroke-width="0.3795" stroke="#000" d="M26.586 19.883c0 0 2.193-2.452 5.348-0.787 0 0-2.543 2.323-5.348 0.787z"></path>
    <path fill="none" stroke-linejoin="round" stroke-linecap="round" stroke-miterlimit="10" stroke-width="0.3795" stroke="#000" d="M23.927 22.759c0 0-2.685-1.925-1.27-5.151 0 0 2.585 2.278 1.27 5.151z"></path>
  </symbol>
  <symbol version="1.1" xmlns="http://www.w3.org/2000/svg" viewBox="0 0 457 32" id="icon-decoration">
    <path d="M199.573 14.084h-172.64c-0.621 0-1.124 0.503-1.124 1.123s0.503 1.123 1.124 1.123h172.64c0.62 0 1.123-0.503 1.123-1.123s-0.503-1.123-1.123-1.123z"></path>
    <path d="M19.11 4.43c6.823 0 13.189 1.829 16.504 3.724 4.258 2.433 23.296 14.157 23.488 14.275 0.456 0.282 0.598 0.88 0.317 1.336-0.28 0.456-0.877 0.6-1.335 0.317-0.191-0.117-19.202-11.825-23.434-14.243-4.456-2.547-14.83-4.968-23.939-2.362-5.222 1.492-7.321 4.277-8.162 6.351-0.992 2.446-0.764 5.333 0.609 7.717 2.72 4.723 9.835 6.648 18.127 4.902 5.019-1.057 7.86-4.278 7.985-6.771 0.094-1.894-1.305-3.398-3.94-4.234l-0.248-0.076 0.504-1.876-0.279 0.931 0.329-0.915 0.283 0.086c3.5 1.111 5.428 3.364 5.288 6.18-0.192 3.847-4.197 7.453-9.524 8.574-9.128 1.92-17.061-0.366-20.208-5.833-1.67-2.899-1.941-6.419-0.727-9.416 1.003-2.474 3.452-5.781 9.428-7.488 2.92-0.835 5.968-1.179 8.931-1.179z"></path>
    <path d="M40.636 10.234c0.191 0.119 19.23 11.844 23.487 14.276 4.756 2.717 15.788 5.299 25.436 2.544 5.975-1.707 8.425-5.015 9.428-7.489 1.214-2.997 0.943-6.518-0.728-9.416-2.405-4.181-7.613-6.503-14.015-6.503-1.967 0-4.046 0.219-6.192 0.671-1.282 0.268-2.502 0.682-3.628 1.227-3.809 1.846-6.123 5.004-5.894 8.047 0.013 0.174 0.041 0.369 0.080 0.571 0.525-0.395 1.149-0.693 1.862-0.873-0.067-2.169 1.83-4.56 4.798-5.998 0.982-0.477 2.054-0.837 3.181-1.075 8.293-1.743 15.406 0.177 18.126 4.901 1.374 2.385 1.601 5.271 0.61 7.718-0.841 2.074-2.939 4.859-8.162 6.351-9.108 2.604-19.482 0.184-23.94-2.362-4.232-2.418-23.242-14.125-23.433-14.244-0.454-0.28-1.053-0.138-1.336 0.317-0.28 0.456-0.139 1.055 0.318 1.336z"></path>
    <path d="M96.057 10.234c0.191 0.119 19.23 11.844 23.487 14.276 4.756 2.717 15.789 5.299 25.436 2.544 5.975-1.707 8.425-5.015 9.429-7.489 1.213-2.997 0.943-6.518-0.728-9.416-2.405-4.181-7.614-6.503-14.016-6.503-1.966 0-4.045 0.219-6.191 0.671-1.282 0.268-2.502 0.682-3.628 1.227-3.809 1.846-6.123 5.004-5.894 8.047 0.013 0.174 0.042 0.369 0.080 0.571 0.525-0.395 1.149-0.693 1.862-0.873-0.067-2.169 1.83-4.56 4.798-5.998 0.983-0.477 2.054-0.837 3.181-1.075 8.293-1.743 15.406 0.177 18.126 4.901 1.374 2.385 1.601 5.271 0.611 7.718-0.841 2.074-2.94 4.859-8.162 6.351-9.108 2.604-19.482 0.184-23.94-2.362-4.232-2.418-23.242-14.125-23.433-14.244-0.454-0.28-1.053-0.138-1.336 0.317-0.28 0.456-0.139 1.055 0.318 1.336z"></path>
    <path d="M28.807 15.594l-3.581-3.581-3.581 3.581 3.581 3.581 3.581-3.581z"></path>
    <path d="M22.475 15.594l-3.581-3.581-3.581 3.581 3.581 3.581 3.581-3.581z"></path>
    <path d="M256.76 14.084h172.64c0.62 0 1.125 0.503 1.125 1.123s-0.504 1.123-1.125 1.123h-172.64c-0.62 0-1.123-0.503-1.123-1.123s0.503-1.123 1.123-1.123z"></path>
    <path d="M437.224 4.43c-6.822 0-13.189 1.829-16.503 3.724-4.259 2.433-23.296 14.157-23.49 14.275-0.456 0.282-0.597 0.88-0.315 1.336 0.279 0.456 0.876 0.6 1.335 0.317 0.19-0.117 19.202-11.825 23.433-14.243 4.457-2.547 14.831-4.968 23.939-2.362 5.222 1.492 7.32 4.277 8.162 6.351 0.992 2.446 0.763 5.333-0.61 7.717-2.72 4.723-9.835 6.648-18.127 4.902-5.019-1.057-7.858-4.278-7.985-6.771-0.094-1.894 1.306-3.398 3.941-4.234l0.247-0.076-0.504-1.876 0.279 0.931-0.329-0.915-0.283 0.086c-3.5 1.111-5.428 3.364-5.288 6.18 0.192 3.847 4.197 7.453 9.524 8.574 9.128 1.92 17.062-0.366 20.209-5.833 1.67-2.899 1.94-6.419 0.727-9.416-1.004-2.474-3.453-5.781-9.429-7.488-2.92-0.835-5.969-1.179-8.931-1.179z"></path>
    <path d="M415.697 10.234c-0.19 0.119-19.23 11.844-23.486 14.276-4.756 2.717-15.788 5.299-25.437 2.544-5.975-1.707-8.425-5.015-9.428-7.489-1.214-2.997-0.943-6.518 0.728-9.416 2.405-4.181 7.613-6.503 14.014-6.503 1.967 0 4.046 0.219 6.191 0.671 1.283 0.268 2.502 0.682 3.628 1.227 3.81 1.846 6.124 5.004 5.894 8.047-0.012 0.174-0.041 0.369-0.079 0.571-0.526-0.395-1.149-0.693-1.862-0.873 0.067-2.169-1.83-4.56-4.798-5.998-0.983-0.477-2.054-0.837-3.182-1.075-8.293-1.743-15.406 0.177-18.126 4.901-1.373 2.385-1.602 5.271-0.61 7.718 0.84 2.074 2.939 4.859 8.162 6.351 9.108 2.604 19.482 0.184 23.939-2.362 4.232-2.418 23.243-14.125 23.433-14.244 0.454-0.28 1.053-0.138 1.336 0.317 0.279 0.456 0.139 1.055-0.318 1.336z"></path>
    <path d="M360.277 10.234c-0.19 0.119-19.23 11.844-23.486 14.276-4.756 2.717-15.79 5.299-25.437 2.544-5.975-1.707-8.425-5.015-9.428-7.489-1.214-2.997-0.943-6.518 0.728-9.416 2.405-4.181 7.613-6.503 14.014-6.503 1.967 0 4.046 0.219 6.191 0.671 1.283 0.268 2.502 0.682 3.628 1.227 3.81 1.846 6.123 5.004 5.894 8.047-0.012 0.174-0.041 0.369-0.079 0.571-0.526-0.395-1.15-0.693-1.862-0.873 0.066-2.169-1.83-4.56-4.798-5.998-0.983-0.477-2.054-0.837-3.182-1.075-8.293-1.743-15.406 0.177-18.126 4.901-1.374 2.385-1.602 5.271-0.61 7.718 0.84 2.074 2.938 4.859 8.162 6.351 9.108 2.604 19.482 0.184 23.939-2.362 4.23-2.418 23.241-14.125 23.433-14.244 0.454-0.28 1.053-0.138 1.336 0.317 0.279 0.456 0.139 1.055-0.318 1.336z"></path>
    <path d="M431.107 19.175l3.581-3.581-3.581-3.581-3.581 3.581 3.581 3.581z"></path>
    <path d="M437.438 19.175l3.581-3.581-3.581-3.581-3.581 3.581 3.581 3.581z"></path>
    <path d="M226.664 0.925l-12.989 12.989c-0.928 0.928-0.928 2.433 0 3.361l12.989 12.989c0.928 0.928 2.434 0.928 3.36 0l12.99-12.989c0.926-0.928 0.926-2.433 0-3.361l-12.99-12.989c-0.926-0.928-2.432-0.928-3.36 0z"></path>
  </symbol>
  <symbol version="1.1" xmlns="http://www.w3.org/2000/svg" viewBox="0 0 32 32" id="icon-facebook">
    <path d="M29.333 16.405c0-7.409-5.969-13.415-13.333-13.415s-13.333 6.006-13.333 13.415c0 6.696 4.876 12.245 11.25 13.252v-9.374h-3.385v-3.878h3.385v-2.955c0-3.362 1.991-5.219 5.036-5.219 1.459 0 2.985 0.262 2.985 0.262v3.301h-1.681c-1.656 0-2.173 1.034-2.173 2.095v2.516h3.698l-0.591 3.878h-3.107v9.374c6.374-1.006 11.25-6.556 11.25-13.252z"></path>
  </symbol>
  <symbol version="1.1" xmlns="http://www.w3.org/2000/svg" viewBox="0 0 32 32" id="icon-instagram">
    <path d="M15.998 6.161c3.206 0 3.585 0.014 4.846 0.071 1.172 0.052 1.804 0.248 2.226 0.412 0.558 0.216 0.961 0.478 1.378 0.895 0.422 0.422 0.679 0.82 0.9 1.378 0.164 0.422 0.361 1.059 0.412 2.226 0.056 1.266 0.071 1.645 0.071 4.847s-0.014 3.585-0.071 4.847c-0.052 1.172-0.248 1.804-0.412 2.227-0.216 0.558-0.478 0.961-0.895 1.377-0.422 0.422-0.82 0.679-1.378 0.9-0.422 0.164-1.060 0.361-2.226 0.412-1.266 0.056-1.645 0.071-4.847 0.071s-3.585-0.014-4.847-0.071c-1.172-0.052-1.804-0.248-2.226-0.412-0.558-0.216-0.961-0.478-1.378-0.895-0.422-0.422-0.679-0.82-0.9-1.378-0.164-0.422-0.361-1.060-0.412-2.226-0.056-1.266-0.071-1.645-0.071-4.847s0.014-3.585 0.071-4.847c0.052-1.172 0.248-1.804 0.412-2.226 0.216-0.558 0.478-0.961 0.895-1.378 0.422-0.422 0.82-0.679 1.378-0.9 0.422-0.164 1.059-0.361 2.226-0.412 1.261-0.056 1.641-0.071 4.847-0.071h0.001zM15.998 4.001c-3.258 0-3.665 0.014-4.945 0.071-1.275 0.056-2.151 0.262-2.91 0.558-0.792 0.309-1.462 0.717-2.127 1.387-0.67 0.666-1.078 1.336-1.387 2.123-0.295 0.764-0.502 1.636-0.558 2.91-0.056 1.285-0.071 1.692-0.071 4.949s0.014 3.665 0.071 4.945c0.056 1.275 0.262 2.151 0.558 2.91 0.31 0.792 0.717 1.462 1.387 2.127 0.665 0.665 1.336 1.078 2.123 1.383 0.764 0.295 1.636 0.502 2.91 0.558 1.279 0.056 1.687 0.071 4.945 0.071s3.666-0.014 4.945-0.071c1.275-0.056 2.151-0.262 2.91-0.558 0.787-0.305 1.458-0.717 2.123-1.383s1.078-1.336 1.383-2.123c0.295-0.764 0.502-1.635 0.558-2.91 0.056-1.279 0.071-1.687 0.071-4.945s-0.014-3.665-0.071-4.945c-0.056-1.275-0.262-2.151-0.558-2.91-0.295-0.797-0.703-1.467-1.373-2.133-0.665-0.665-1.336-1.078-2.123-1.383-0.764-0.295-1.635-0.502-2.91-0.558-1.284-0.061-1.692-0.075-4.949-0.075l-0.001 0.001z"></path>
    <path d="M15.998 9.836c-3.402 0-6.163 2.76-6.163 6.163s2.76 6.163 6.163 6.163c3.403 0 6.163-2.76 6.163-6.163s-2.76-6.163-6.163-6.163zM15.998 19.997c-2.208 0-3.998-1.79-3.998-3.998s1.79-3.998 3.998-3.998c2.208 0 3.998 1.79 3.998 3.998s-1.79 3.998-3.998 3.998z"></path>
    <path d="M23.843 9.592c0 0.795-0.644 1.439-1.439 1.439s-1.439-0.644-1.439-1.439 0.644-1.439 1.439-1.439c0.795 0 1.439 0.644 1.439 1.439z"></path>
  </symbol>
  <symbol version="1.1" xmlns="http://www.w3.org/2000/svg" viewBox="0 0 32 32" id="icon-location">
    <path stroke-linejoin="miter" stroke-linecap="butt" stroke-miterlimit="4" stroke-width="1.3333" stroke="#000" fill="#000" d="M16 3.126c2.699 0 5.071 0.939 7.141 2.844 2.031 1.869 3.066 4.38 3.066 7.607-0 1.314-0.289 2.627-0.879 3.944-0.605 1.351-1.363 2.645-2.277 3.883-0.922 1.248-1.923 2.413-3.004 3.495-1.097 1.098-2.121 2.069-3.069 2.914l-0.008 0.007-0.006 0.006c-0.121 0.114-0.26 0.197-0.423 0.25-0.195 0.063-0.378 0.093-0.551 0.093s-0.351-0.029-0.537-0.091c-0.154-0.051-0.285-0.131-0.4-0.243l-0.012-0.012-0.013-0.010c-0.953-0.844-1.979-1.815-3.076-2.913-1.081-1.081-2.082-2.247-3.004-3.495-0.914-1.237-1.672-2.531-2.273-3.881-0.587-1.318-0.875-2.631-0.875-3.945 0-3.227 1.035-5.738 3.064-7.607 2.067-1.904 4.436-2.844 7.135-2.844zM16 4.072c-2.58 0-4.787 0.892-6.576 2.671-1.799 1.79-2.686 4.088-2.686 6.835 0 1.893 0.792 3.945 2.264 6.138 1.473 2.194 3.661 4.633 6.543 7.314l0.449 0.418 0.453-0.411c2.95-2.677 5.161-5.118 6.604-7.322 1.438-2.196 2.209-4.248 2.21-6.137 0-2.747-0.887-5.045-2.686-6.835v-0.001c-1.789-1.779-3.995-2.669-6.575-2.669zM15.997 11.603c0.488 0 0.885 0.164 1.228 0.505s0.505 0.735 0.505 1.223c-0 0.488-0.164 0.883-0.504 1.223s-0.735 0.503-1.224 0.503c-0.489-0-0.884-0.164-1.223-0.501s-0.503-0.729-0.503-1.217c0-0.429 0.126-0.787 0.384-1.099l0.119-0.13c0.337-0.341 0.73-0.505 1.217-0.505z"></path>
  </symbol>
  <symbol version="1.1" xmlns="http://www.w3.org/2000/svg" viewBox="0 0 32 32" id="icon-slider-arrow-right">
    <path stroke-linejoin="miter" stroke-linecap="butt" stroke-miterlimit="4" stroke-width="1.3333" stroke="#000" fill="#000" d="M15.993 6.253c0.095 0.001 0.177 0.023 0.259 0.081l0.082 0.070 9.264 9.264c0.071 0.072 0.105 0.128 0.121 0.167v0.001c0.020 0.048 0.031 0.102 0.031 0.165s-0.012 0.116-0.031 0.163v0.001c-0.016 0.038-0.050 0.094-0.121 0.167l-9.272 9.264c-0.122 0.12-0.227 0.155-0.337 0.155-0.108-0-0.204-0.033-0.315-0.147l-0.007-0.007-0.069-0.081c-0.056-0.079-0.075-0.157-0.075-0.243s0.020-0.163 0.075-0.242l0.069-0.081 8.482-8.482h-17.88c-0.163-0-0.259-0.047-0.34-0.128h-0.001c-0.081-0.081-0.128-0.179-0.128-0.341s0.046-0.26 0.128-0.341h0.001c0.081-0.081 0.177-0.127 0.34-0.128h17.88l-8.474-8.474c-0.082-0.082-0.124-0.16-0.141-0.246l-0.008-0.090c-0.001-0.12 0.034-0.218 0.141-0.326l0.001-0.001c0.107-0.107 0.205-0.143 0.324-0.142z"></path>
  </symbol>
  <symbol version="1.1" xmlns="http://www.w3.org/2000/svg" viewBox="0 0 32 32" id="icon-mail">
    <path stroke-linejoin="miter" stroke-linecap="butt" stroke-miterlimit="4" stroke-width="1.3333" stroke="#000" fill="#000" d="M4.072 7.656v17.605h23.857v-17.077l-11.642 7.664c-0.080 0.042-0.15 0.076-0.211 0.1-0.004 0.001-0.027 0.008-0.075 0.008s-0.072-0.007-0.075-0.008c-0.061-0.024-0.131-0.058-0.212-0.1l-10.307-6.788v-0.533l10.595 6.94 12.841-8.387c0.021 0.104 0.033 0.211 0.033 0.323v17.19c0 0.428-0.15 0.793-0.482 1.124s-0.698 0.48-1.13 0.48h-22.523c-0.429 0-0.793-0.15-1.124-0.48l-0.116-0.125c-0.25-0.297-0.365-0.623-0.365-0.999v-17.19c0-0.118 0.012-0.231 0.035-0.34l0.902 0.591zM4.738 5.793h22.523c0.431 0 0.797 0.151 1.129 0.483h0.001c0.146 0.146 0.255 0.3 0.333 0.462h-25.444c0.078-0.163 0.187-0.317 0.333-0.464h0.001c0.331-0.332 0.694-0.482 1.122-0.482z"></path>
  </symbol>
  <symbol version="1.1" xmlns="http://www.w3.org/2000/svg" viewBox="0 0 32 32" id="icon-slider-arrow-up">
    <path stroke-linejoin="miter" stroke-linecap="butt" stroke-miterlimit="4" stroke-width="1.3333" stroke="#000" fill="#000" d="M6.253 16.007c0.001-0.095 0.023-0.177 0.081-0.259l0.070-0.082 9.264-9.264c0.072-0.071 0.128-0.105 0.167-0.121h0.001c0.048-0.020 0.102-0.031 0.165-0.031s0.116 0.012 0.163 0.031h0.001c0.038 0.016 0.094 0.050 0.167 0.121l9.264 9.272c0.12 0.122 0.155 0.227 0.155 0.337-0 0.108-0.033 0.204-0.147 0.315l-0.007 0.007-0.081 0.069c-0.079 0.056-0.157 0.075-0.243 0.075s-0.163-0.020-0.242-0.075l-0.081-0.069-8.482-8.482v17.88c-0 0.163-0.047 0.259-0.128 0.34v0.001c-0.081 0.081-0.179 0.128-0.341 0.128s-0.26-0.046-0.341-0.128v-0.001c-0.081-0.081-0.127-0.177-0.128-0.34v-17.88l-8.474 8.474c-0.082 0.082-0.16 0.124-0.246 0.141l-0.090 0.008c-0.12 0.001-0.218-0.034-0.326-0.141l-0.001-0.001c-0.107-0.107-0.143-0.205-0.142-0.324z"></path>
  </symbol>
  <symbol version="1.1" xmlns="http://www.w3.org/2000/svg" viewBox="0 0 32 32" id="icon-slider-arrow-left">
    <path stroke-linejoin="miter" stroke-linecap="butt" stroke-miterlimit="4" stroke-width="1.3333" stroke="#000" fill="#000" d="M16.010 6.249c0.114 0 0.212 0.035 0.322 0.145 0.11 0.115 0.145 0.217 0.145 0.332-0 0.116-0.035 0.214-0.145 0.324l-8.482 8.482h17.88c0.162 0 0.262 0.047 0.348 0.132 0.083 0.082 0.129 0.177 0.129 0.337s-0.046 0.255-0.129 0.337c-0.085 0.084-0.186 0.131-0.348 0.132h-17.88l8.474 8.473c0.11 0.11 0.147 0.212 0.148 0.335v0.001c0.001 0.089-0.019 0.167-0.074 0.246l-0.069 0.082c-0.107 0.108-0.204 0.143-0.323 0.142-0.126-0.001-0.23-0.041-0.341-0.151l-9.264-9.264c-0.071-0.072-0.105-0.128-0.121-0.167v-0.001c-0.020-0.048-0.031-0.102-0.031-0.165s0.012-0.116 0.031-0.163v-0.001c0.016-0.038 0.050-0.095 0.121-0.167l9.267-9.267c0.121-0.116 0.227-0.152 0.342-0.152z"></path>
  </symbol>
  <symbol version="1.1" xmlns="http://www.w3.org/2000/svg" viewBox="0 0 32 32" id="icon-x">
    <path d="M22.901 5.657h3.68l-8.040 9.037 9.459 12.297h-7.406l-5.801-7.458-6.637 7.458h-3.682l8.6-9.666-9.074-11.668h7.594l5.243 6.817 6.064-6.817zM21.61 24.824h2.039l-13.163-17.115h-2.188l13.312 17.115z"></path>
  </symbol>
</svg>